<svg fill="none" xmlns="http://www.w3.org/2000/svg" viewBox="0 0 80 80"><path d="M64.02 30.01h-4.823l1.453-16.685c.003-.03.004-.06.004-.09V13.226c0-.454-.274-.854-.677-1.028l-.01-.005c-.025-.01-.05-.02-.077-.028l-.029-.01-.064-.017c-.015-.003-.03-.008-.046-.01l-.058-.01-.054-.007-.01-.001c-.02-.002-.039-.002-.058-.002l-.04-.002H36.565a1.123 1.123 0 0 0 0 2.244h21.743l-2.233 25.642v.006l-.564 6.47H16.517l.652-6.733h7.424a1.122 1.122 0 1 0 0-2.244h-7.207l1.378-14.214H30.58a1.122 1.122 0 1 0 0-2.244H18.981l.648-6.683h12.448c.618 0 1.122-.504 1.122-1.122 0-.62-.504-1.122-1.122-1.122H18.608c-.527 0-.984.37-1.095.885l-.002.011a1.18 1.18 0 0 0-.014.085c0 .01-.003.018-.003.027l-.001.006-.767 7.913H3.122a1.122 1.122 0 1 0 0 2.244H16.51l-1.377 14.214h-4.004a1.122 1.122 0 1 0 0 2.244h3.786l-.75 7.74v.003l-1.16 11.967v.008L13 59.5c0 .021-.003.041-.003.062v.003c0 .029.002.057.004.086l.002.027c.003.03.008.058.013.086l.004.025c.004.022.01.043.016.064.004.015.007.03.012.044l.004.012c.054.167.147.317.267.44l.006.007.038.034c.077.07.164.13.26.178l.06.029.019.007c.028.01.056.021.086.03l.008.003c.033.01.066.018.1.025l.014.002a1.12 1.12 0 0 0 .21.02h4.998c.551 4.183 4.137 7.423 8.468 7.423 4.33 0 7.917-3.24 8.468-7.422h18c.552 4.182 4.138 7.422 8.469 7.422 4.33 0 7.916-3.24 8.468-7.422h5c.037 0 .074-.002.11-.006.007 0 .013-.002.02-.003.029-.003.058-.007.087-.013l.036-.008a.988.988 0 0 0 .065-.017l.044-.015.055-.02.045-.02a1.299 1.299 0 0 0 .18-.103c.016-.01.03-.022.046-.033l.036-.03a.902.902 0 0 0 .045-.04l.03-.03c.016-.015.03-.032.046-.05l.023-.026a1.26 1.26 0 0 0 .047-.063l.016-.022c.018-.027.035-.055.05-.084l.004-.005a1.06 1.06 0 0 0 .046-.096l.011-.029c.01-.023.018-.046.026-.07l.013-.048.014-.056.009-.051.008-.046c.047-.381.926-7.431 1.319-11.99v-.013c.114-1.315.186-2.421.186-3.099 0-8.044-6.544-14.588-14.589-14.588Zm-5.018 2.244h4.59l-.586 6.733h-4.59l.586-6.733ZM27.587 65.861a6.307 6.307 0 0 1-6.3-6.3c0-3.474 2.827-6.3 6.3-6.3 3.474 0 6.3 2.826 6.3 6.3 0 3.474-2.826 6.3-6.3 6.3Zm34.937 0a6.307 6.307 0 0 1-6.3-6.3c0-3.474 2.826-6.3 6.3-6.3 3.474 0 6.3 2.826 6.3 6.3 0 3.474-2.826 6.3-6.3 6.3Zm12.474-7.423h-4.005c-.552-4.182-4.138-7.422-8.469-7.422-4.33 0-7.917 3.24-8.468 7.422h-18c-.552-4.182-4.138-7.422-8.468-7.422-4.332 0-7.918 3.24-8.47 7.422h-3.761l.942-9.726H56.541c.037 0 .075-.001.112-.005l.02-.003c.03-.004.058-.008.087-.014l.037-.008c.022-.006.045-.011.067-.018.015-.004.029-.01.043-.015.02-.006.038-.013.056-.02l.047-.02.049-.025.045-.025.046-.028.042-.029a1.228 1.228 0 0 0 .157-.136 1.25 1.25 0 0 0 .162-.216l.022-.04c.01-.017.018-.035.026-.053l.02-.044.02-.054.016-.048.013-.053c.005-.018.01-.035.013-.054l.008-.053.008-.056v-.008l.563-6.456h5.8c3.438 0 4.989 1.781 6.63 3.667 1.355 1.557 2.867 3.293 5.438 3.717-.326 3.452-.854 7.883-1.09 9.823Zm1.282-12.072c-1.668-.34-2.694-1.512-3.937-2.94-1.554-1.786-3.452-3.965-7.09-4.372l.58-6.665c5.95.88 10.532 6.02 10.532 12.21 0 .42-.032 1.031-.085 1.767Z" fill="#FFFFFF"/><path d="M27.587 55.446a4.12 4.12 0 0 0-4.114 4.115 4.12 4.12 0 0 0 4.114 4.115 4.12 4.12 0 0 0 4.115-4.115 4.12 4.12 0 0 0-4.115-4.115Zm0 5.985a1.872 1.872 0 0 1-1.87-1.87c0-1.032.84-1.87 1.87-1.87 1.032 0 1.87.838 1.87 1.87 0 1.031-.838 1.87-1.87 1.87ZM62.524 55.446a4.12 4.12 0 0 0-4.115 4.115 4.12 4.12 0 0 0 4.115 4.115 4.12 4.12 0 0 0 4.114-4.115 4.12 4.12 0 0 0-4.114-4.115Zm0 5.985a1.872 1.872 0 0 1-1.87-1.87c0-1.032.838-1.87 1.87-1.87 1.031 0 1.87.838 1.87 1.87 0 1.031-.839 1.87-1.87 1.87ZM12.623 30.01H7.138a1.122 1.122 0 1 0 0 2.244h5.487a1.122 1.122 0 1 0 0-2.244Z" fill="#FFFFFF"/></svg>
