<svg xmlns="http://www.w3.org/2000/svg"><style>:root svg:not(:target){display:none}</style><svg fill="none" viewBox="0 0 16 16" id="login-icon"><path fill="#fff" fill-rule="evenodd" d="M9 2h5v12H9v2h7V0H9v2ZM4.3 3.7l3.24 3.25H0v2h7.54l-3.25 3.24 1.42 1.42 4.95-4.95.7-.71-.7-.7L5.7 2.28 4.29 3.71Z" clip-rule="evenodd"></path></svg><svg fill="none" viewBox="0 0 16 16" id="phone-icon"><path fill-rule="evenodd" clip-rule="evenodd" d="M7.09 5.07c.414-.558.562-1.147.093-1.667C6.132 1.931 5.424 1.021 4.98.583 4.137-.251 2.75-.138 2.018.582a74 74 0 0 0-.928.929C-1.155 3.756.214 8.504 3.853 12.146c3.638 3.642 8.385 5.011 10.634 2.76.372-.358.687-.673.935-.935.716-.757.825-2.083-.005-2.945-.425-.442-1.293-1.115-2.827-2.213-.47-.42-1.027-.329-1.537.006-.246.162-.425.325-.762.662l-.613.614c-.081.08-1.177-.468-2.242-1.534C6.372 7.495 5.823 6.4 5.903 6.32l.614-.614c.107-.107.158-.16.224-.228.137-.144.25-.274.348-.407Zm3.719 6.156.613-.613c.185-.186.306-.3.404-.38 1.343.966 2.122 1.572 2.44 1.903.19.198.16.56-.005.735-.23.243-.528.541-.894.894-1.455 1.455-5.286.35-8.383-2.75-3.098-3.1-4.203-6.933-2.76-8.377.402-.408.53-.535.916-.916.145-.143.54-.175.717 0 .341.337.975 1.148 1.907 2.447a3.38 3.38 0 0 1-.181.205l-.197.2-.613.613C3.73 6.23 4.618 8.004 6.305 9.693c1.686 1.687 3.461 2.576 4.504 1.533ZM9.328.056a7.604 7.604 0 0 1 6.62 6.62l-1.58.263a6.002 6.002 0 0 0-5.303-5.303l.263-1.58ZM8.8 3.218a4.401 4.401 0 0 1 3.985 3.985l-1.585.264a2.8 2.8 0 0 0-2.664-2.664L8.8 3.218Z" fill="#293449"></path></svg><svg fill="none" viewBox="0 0 80 80" id="promo-delivery"><path d="M64.02 30.01h-4.823l1.453-16.685a.903.903 0 0 0 .004-.09v-.009c0-.454-.274-.854-.677-1.028l-.01-.005c-.025-.01-.05-.02-.077-.028l-.029-.01-.064-.017c-.015-.003-.03-.008-.046-.01l-.058-.01-.054-.007-.01-.001c-.02-.002-.039-.002-.058-.002l-.04-.002H36.565a1.123 1.123 0 0 0 0 2.244h21.743l-2.233 25.642v.006l-.564 6.47H16.517l.652-6.733h7.424a1.122 1.122 0 1 0 0-2.244h-7.207l1.378-14.214H30.58a1.122 1.122 0 1 0 0-2.244H18.981l.648-6.683h12.448a1.123 1.123 0 0 0 0-2.244H18.608c-.527 0-.984.37-1.095.885l-.002.011a1.18 1.18 0 0 0-.014.085c0 .01-.003.018-.003.027l-.001.006-.767 7.913H3.122a1.122 1.122 0 1 0 0 2.244H16.51l-1.377 14.214h-4.004a1.122 1.122 0 1 0 0 2.244h3.786l-.75 7.74v.003l-1.16 11.967v.008L13 59.5c0 .021-.003.041-.003.062v.003c0 .029.002.057.004.086l.002.027c.003.03.008.058.013.086l.004.025c.004.022.01.043.016.064.004.015.007.03.012.044l.004.012c.054.167.147.317.267.44l.006.007.038.034c.077.07.164.13.26.178l.06.029.019.007c.028.01.056.021.086.03l.008.003c.033.01.066.018.1.025l.014.002a1.12 1.12 0 0 0 .21.02h4.998c.551 4.183 4.137 7.423 8.468 7.423 4.33 0 7.917-3.24 8.468-7.422h18c.552 4.182 4.138 7.422 8.469 7.422 4.33 0 7.916-3.24 8.468-7.422h5a1 1 0 0 0 .11-.006c.007 0 .013-.002.02-.003a.87.87 0 0 0 .087-.013l.036-.008a.988.988 0 0 0 .065-.017l.044-.015.055-.02.045-.02a1.299 1.299 0 0 0 .18-.103c.016-.01.03-.022.046-.033l.036-.03a.902.902 0 0 0 .045-.04l.03-.03c.016-.015.03-.032.046-.05l.023-.026a1.26 1.26 0 0 0 .047-.063l.016-.022a.885.885 0 0 0 .05-.084l.004-.005a1.06 1.06 0 0 0 .046-.096l.011-.029a.837.837 0 0 0 .026-.07l.013-.048.014-.056.009-.051.008-.046c.047-.381.926-7.431 1.319-11.99v-.013c.114-1.315.186-2.421.186-3.099 0-8.044-6.544-14.588-14.589-14.588Zm-5.018 2.244h4.59l-.586 6.733h-4.59l.586-6.733ZM27.587 65.861a6.307 6.307 0 0 1-6.3-6.3c0-3.474 2.827-6.3 6.3-6.3 3.474 0 6.3 2.826 6.3 6.3 0 3.474-2.826 6.3-6.3 6.3Zm34.937 0a6.307 6.307 0 0 1-6.3-6.3c0-3.474 2.826-6.3 6.3-6.3 3.474 0 6.3 2.826 6.3 6.3 0 3.474-2.826 6.3-6.3 6.3Zm12.474-7.423h-4.005c-.552-4.182-4.138-7.422-8.469-7.422-4.33 0-7.917 3.24-8.468 7.422h-18c-.552-4.182-4.138-7.422-8.468-7.422-4.332 0-7.918 3.24-8.47 7.422h-3.761l.942-9.726h40.242c.037 0 .075-.001.112-.005l.02-.003c.03-.004.058-.008.087-.014l.037-.008c.022-.006.045-.011.067-.018.015-.004.029-.01.043-.015.02-.006.038-.013.056-.02l.047-.02.049-.025.045-.025.046-.028.042-.029a1.228 1.228 0 0 0 .157-.136 1.25 1.25 0 0 0 .162-.216l.022-.04c.01-.017.018-.035.026-.053l.02-.044.02-.054.016-.048.013-.053c.005-.018.01-.035.013-.054l.008-.053.008-.056v-.008l.563-6.456h5.8c3.438 0 4.989 1.781 6.63 3.667 1.355 1.557 2.867 3.293 5.438 3.717-.326 3.452-.854 7.883-1.09 9.823Zm1.282-12.072c-1.668-.34-2.694-1.512-3.937-2.94-1.554-1.786-3.452-3.965-7.09-4.372l.58-6.665c5.95.88 10.532 6.02 10.532 12.21 0 .42-.032 1.031-.085 1.767Z" fill="#FFF"></path><path d="M27.587 55.446a4.12 4.12 0 0 0-4.114 4.115 4.12 4.12 0 0 0 4.114 4.115 4.12 4.12 0 0 0 4.115-4.115 4.12 4.12 0 0 0-4.115-4.115Zm0 5.985a1.872 1.872 0 0 1-1.87-1.87 1.871 1.871 0 1 1 1.87 1.87Zm34.937-5.985a4.12 4.12 0 0 0-4.115 4.115 4.12 4.12 0 0 0 4.115 4.115 4.12 4.12 0 0 0 4.114-4.115 4.12 4.12 0 0 0-4.114-4.115Zm0 5.985a1.872 1.872 0 0 1-1.87-1.87 1.871 1.871 0 0 1 3.74 0c0 1.031-.839 1.87-1.87 1.87ZM12.623 30.01H7.138a1.122 1.122 0 1 0 0 2.244h5.487a1.122 1.122 0 1 0 0-2.244Z" fill="#FFF"></path></svg><svg fill="none" viewBox="0 0 80 80" id="promo-materials"><path d="M70.6 16.2h-7.933v-2.267a3.41 3.41 0 0 0-3.4-3.4h-7.934v-3.4A1.133 1.133 0 0 0 50.2 6H7.133A1.133 1.133 0 0 0 6 7.133V70.6a1.133 1.133 0 0 0 1.133 1.133h34.204A3.412 3.412 0 0 0 44.533 74h6.8a3.41 3.41 0 0 0 3.4-3.4V51.333h1.134A1.134 1.134 0 0 0 57 50.2v-4.533a1.133 1.133 0 0 0-1.133-1.134h-4.534V40H70.6a3.41 3.41 0 0 0 3.4-3.4v-17a3.41 3.41 0 0 0-3.4-3.4Zm-7.933 9.067V23H67.2v10.2H51.333v-4.533h7.934a3.41 3.41 0 0 0 3.4-3.4Zm-3.4-12.467a1.134 1.134 0 0 1 1.133 1.133v11.334a1.134 1.134 0 0 1-1.133 1.133h-40.8a1.133 1.133 0 0 1-1.134-1.133V13.933a1.133 1.133 0 0 1 1.134-1.133h40.8Zm-24.934 17a3.41 3.41 0 0 0-3.4 3.4v7.933a1.133 1.133 0 1 1-2.266 0v-3.4a3.4 3.4 0 1 0-6.8 0V50.2a1.133 1.133 0 0 1-2.267 0V28.667H40v9.066a1.133 1.133 0 1 1-2.267 0V33.2a3.41 3.41 0 0 0-3.4-3.4Zm6.8 39.667H8.267v-61.2h40.8v2.266h-30.6a3.41 3.41 0 0 0-3.4 3.4V16.2h-1.134a2.274 2.274 0 0 0-2.266 2.267v2.266A2.273 2.273 0 0 0 13.933 23h1.134v2.267a3.41 3.41 0 0 0 2.266 3.196V50.2a3.4 3.4 0 0 0 6.8 0V37.733a1.133 1.133 0 0 1 2.267 0v3.4a3.4 3.4 0 1 0 6.8 0V33.2a1.134 1.134 0 0 1 2.267 0v4.533a3.4 3.4 0 1 0 6.8 0v-9.066h6.8V33.2h-1.134a3.41 3.41 0 0 0-3.4 3.4v7.933H40a1.133 1.133 0 0 0-1.133 1.134V50.2A1.134 1.134 0 0 0 40 51.333h1.133v18.134Zm-26.066-51v2.266h-1.134v-2.266h1.134Zm37.4 52.133a1.133 1.133 0 0 1-1.134 1.133h-6.8A1.134 1.134 0 0 1 43.4 70.6V51.333h9.067V70.6Zm2.266-23.8v2.267h-13.6V46.8h13.6Zm17-10.2a1.134 1.134 0 0 1-1.133 1.133H51.333A2.274 2.274 0 0 0 49.067 40v4.533H46.8V36.6a1.134 1.134 0 0 1 1.133-1.133H67.2a2.274 2.274 0 0 0 2.267-2.267V23a2.274 2.274 0 0 0-2.267-2.267h-4.533v-2.266H70.6a1.133 1.133 0 0 1 1.133 1.133v17Z" fill="#FFF"></path><path d="M20.733 55.867a3.4 3.4 0 1 0 0 6.8 3.4 3.4 0 0 0 0-6.8Zm0 4.533a1.133 1.133 0 1 1 0-2.266 1.133 1.133 0 0 1 0 2.266ZM29.8 46.8a3.4 3.4 0 1 0 0 6.8 3.4 3.4 0 0 0 0-6.8Zm0 4.533a1.134 1.134 0 1 1 0-2.267 1.134 1.134 0 0 1 0 2.267ZM19.6 16.2a1.134 1.134 0 0 0 1.133 1.133h30.6a1.133 1.133 0 1 0 0-2.266h-30.6A1.134 1.134 0 0 0 19.6 16.2Zm36.267 1.133H57a1.133 1.133 0 1 0 0-2.266h-1.133a1.134 1.134 0 0 0 0 2.266Z" fill="#FFF"></path></svg><svg fill="none" viewBox="0 0 80 80" id="promo-sale"><path d="M72.988 17.802h-2.974l.003-5.315a6.479 6.479 0 0 0-6.468-6.474L40.985 6h-.003c-1.284 0-2.492.5-3.4 1.409L3.894 41.095A6.428 6.428 0 0 0 2 45.67c0 1.728.673 3.353 1.895 4.576l21.861 21.86A6.452 6.452 0 0 0 30.332 74a6.45 6.45 0 0 0 4.577-1.892l21.209-21.21a1.485 1.485 0 1 0-2.1-2.1l-21.21 21.21a3.505 3.505 0 0 1-4.951 0L5.996 48.147A3.48 3.48 0 0 1 4.97 45.67a3.48 3.48 0 0 1 1.026-2.476L39.68 9.509c.348-.347.81-.539 1.301-.539h.001l22.564.013a3.505 3.505 0 0 1 3.5 3.503l-.007 12.445h-6.69a2.073 2.073 0 0 1-1.474-.615 5.449 5.449 0 0 0 1.71-1.157 5.48 5.48 0 0 0 0-7.742 5.48 5.48 0 0 0-7.742 0 5.48 5.48 0 0 0 0 7.742 5.446 5.446 0 0 0 2.79 1.493 5.058 5.058 0 0 0 4.717 3.25h6.688l-.005 7.118c0 .492-.191.953-.538 1.3l-4.077 4.077a1.485 1.485 0 1 0 2.1 2.101l4.077-4.078a4.78 4.78 0 0 0 1.409-3.398l.004-7.12h2.979a5.055 5.055 0 0 0 5.049-5.05 5.055 5.055 0 0 0-5.05-5.05Zm-18.043-.285a2.496 2.496 0 0 1 1.77-.732 2.498 2.498 0 0 1 2.159 1.238 5.07 5.07 0 0 0-3.38 3.449 2.489 2.489 0 0 1-.55-.413 2.507 2.507 0 0 1 0-3.542Zm18.043 7.414H70.01l.003-4.158h2.975c1.146 0 2.079.933 2.079 2.079a2.082 2.082 0 0 1-2.08 2.079Z" fill="#FFF"></path><path d="M25.971 43.47a1.485 1.485 0 0 0 1.829 1.032l15.245-4.243a1.485 1.485 0 0 0-.796-2.861L27.003 41.64a1.486 1.486 0 0 0-1.032 1.829Zm6.711 1.96a4.35 4.35 0 0 0-1.282 3.096 4.35 4.35 0 0 0 1.282 3.096 4.366 4.366 0 0 0 3.096 1.28 4.368 4.368 0 0 0 3.097-1.28 4.384 4.384 0 0 0 0-6.193 4.384 4.384 0 0 0-6.193 0Zm4.092 4.091a1.41 1.41 0 0 1-2.404-.996 1.407 1.407 0 0 1 2.405-.996 1.41 1.41 0 0 1 0 1.992Zm2.836-12.934a4.384 4.384 0 0 0 0-6.193 4.35 4.35 0 0 0-3.096-1.282c-1.17 0-2.27.455-3.096 1.283a4.384 4.384 0 0 0 0 6.192 4.366 4.366 0 0 0 3.096 1.28 4.368 4.368 0 0 0 3.097-1.28Zm-4.092-4.093a1.4 1.4 0 0 1 .996-.412 1.41 1.41 0 0 1 .996 2.405 1.41 1.41 0 0 1-1.992 0 1.411 1.411 0 0 1 0-1.992Z" fill="#FFF"></path><path d="M16.771 40.4c-.58-.58-1.52-.58-2.1 0l-4.22 4.22a1.485 1.485 0 0 0 0 2.1l18.832 18.833a1.483 1.483 0 0 0 2.1 0l28.156-28.157c.58-.58.58-1.52 0-2.1L40.708 16.463a1.485 1.485 0 0 0-2.1 0L23.072 32a1.485 1.485 0 0 0 2.1 2.1l14.486-14.486 16.731 16.732-26.056 26.056L13.6 45.671l3.17-3.17c.58-.58.58-1.52 0-2.1Zm42.497 3.763a1.5 1.5 0 0 0-1.05.435c-.276.276-.435.66-.435 1.05s.16.774.435 1.05c.277.276.66.435 1.05.435s.774-.159 1.05-.435c.277-.276.436-.66.436-1.05s-.16-.774-.436-1.05a1.498 1.498 0 0 0-1.05-.435Z" fill="#FFF"></path><path d="M20.97 38.3a1.487 1.487 0 0 0 0-2.1 1.494 1.494 0 0 0-1.05-.436 1.5 1.5 0 0 0-1.05.436c-.276.276-.434.66-.434 1.05 0 .392.158.773.435 1.05a1.486 1.486 0 0 0 2.1 0Z" fill="#FFF"></path></svg><svg fill="none" viewBox="0 0 20 20" id="search-icon"><path fill="#fff" fill-rule="evenodd" d="M8 16a8 8 0 1 1 6.32-3.094l5.387 5.387-1.414 1.414-5.387-5.387A7.965 7.965 0 0 1 8 16Zm6-8A6 6 0 1 1 2 8a6 6 0 0 1 12 0Z" clip-rule="evenodd"></path></svg><svg fill="none" viewBox="0 0 80 80" id="services-credit"><path fill="#FFF" d="M61.24 10.352v.758L43.031 5.36a7.69 7.69 0 0 0-6.46.847l-7.536 4.796a7.664 7.664 0 0 0-3.475 5.311H8.77a1.193 1.193 0 0 0-1.192 1.193v26.235a1.192 1.192 0 0 0 1.192 1.192h50.085a1.192 1.192 0 0 0 1.193-1.192V31.006c.16-.12.318-.247.47-.382h.722v2.385a1.192 1.192 0 0 0 1.193 1.193H75.55v-2.385H63.625V11.544H75.55V9.16H62.433a1.193 1.193 0 0 0-1.193 1.193ZM42.45 36.587c.474 0 .946-.054 1.408-.16a10.696 10.696 0 0 0-2.822 6.122h-6.03V18.7h.903a3.867 3.867 0 0 1 2.734 6.601l-.614.614a6.253 6.253 0 0 0 4.42 10.673Zm8.059-3.51a10.67 10.67 0 0 0-2.577.617l2.577-2.576v1.96Zm0 2.404v7.068H43.44a8.364 8.364 0 0 1 7.069-7.068ZM32.62 42.549h-4.77V18.7h4.77v23.85Zm-7.155 0h-6.03a10.751 10.751 0 0 0-9.472-9.472v-4.906a10.75 10.75 0 0 0 9.472-9.472h6.03v23.85ZM17.031 18.7a8.364 8.364 0 0 1-7.068 7.069V18.7h7.068ZM9.963 35.481a8.365 8.365 0 0 1 7.068 7.068H9.963v-7.068Zm47.7 7.068h-4.77V32.231a7.992 7.992 0 0 0 4.77 0v10.318Zm2.384-14.31c-.316 0-.62.126-.843.35a5.56 5.56 0 0 1-7.854 0 1.193 1.193 0 0 0-1.686 0l-4.48 4.48a3.868 3.868 0 1 1-5.47-5.468l.614-.614a6.251 6.251 0 0 0-4.42-10.673h-7.925a5.298 5.298 0 0 1 2.332-3.3l7.536-4.795a5.311 5.311 0 0 1 4.462-.585L61.24 13.61v14.628h-1.193ZM11.155 74.747v-1.193h3.578a1.193 1.193 0 0 0 1.192-1.192v-1.26l.113.08a25.54 25.54 0 0 0 32.904-2.723l8.968-8.968a5.408 5.408 0 0 0-6.888-8.281 4.555 4.555 0 0 0-7.602-1.034 4.65 4.65 0 0 0-6.9 2.861l-1.254 5.015h-6.922l-.843-.844a9.629 9.629 0 0 0-11.576-1.555v-1.179a1.192 1.192 0 0 0-1.193-1.192h-3.577a1.192 1.192 0 0 0-1.192-1.193H4v2.385h4.77v19.08H4v2.385h5.963a1.193 1.193 0 0 0 1.192-1.192Zm35.21-23.727a2.171 2.171 0 0 1 2.695 2.023l-8.321 8.32a4.755 4.755 0 0 0-.593-1.214l4.884-8.14a2.157 2.157 0 0 1 1.335-.989Zm-7.531 2.596a2.267 2.267 0 0 1 3.306-1.426l-3.818 6.363a4.721 4.721 0 0 0-.655-.269l1.167-4.668Zm-18.139 3.158a7.193 7.193 0 0 1 5.12 2.121l1.192 1.192c.223.224.527.35.843.35h8.347a2.385 2.385 0 1 1 0 4.77H25.465v2.385h10.732a4.774 4.774 0 0 0 4.203-2.517L51.947 53.53a3.023 3.023 0 0 1 4.276 4.276l-8.968 8.967a23.155 23.155 0 0 1-29.831 2.47l-1.499-1.072v-9.6a7.185 7.185 0 0 1 4.77-1.796Zm-7.155-1.107v15.502h-2.385V55.667h2.385Z"></path></svg><svg fill="none" viewBox="0 0 80 80" id="services-warranty"><path fill="#FFF" d="M70.562 38.789a14.02 14.02 0 0 1-11.69-6.257l-.936-1.405-.938 1.405a14.02 14.02 0 0 1-11.69 6.257h-4.267v18.06c0 4.366 1.966 8.47 5.25 11.223H23.02v-4.505h14.641V43.294H14.01v9.01H7.253V7.253h49.556v20.273h2.253V5H5v48.897l16.428 16.428h28.325L57.936 75l9.517-5.438A14.674 14.674 0 0 0 74.83 56.85V38.789h-4.268Zm-49.794 27.69L8.845 54.558h11.923V66.48Zm-4.505-14.175v-6.758H35.41v15.769H23.02v-9.01h-6.757Zm56.314 4.546c0 4.435-2.392 8.556-6.242 10.757l-8.4 4.8-8.4-4.8a12.418 12.418 0 0 1-6.241-10.757V41.04h2.015c4.933 0 9.546-2.213 12.627-5.99a16.267 16.267 0 0 0 12.626 5.99h2.015v15.81Z"></path><path fill="#FFF" d="M68.072 50.052v6.798a7.902 7.902 0 0 1-3.972 6.846l1.117 1.955a10.158 10.158 0 0 0 5.108-8.801v-6.798h-2.253ZM11.758 9.505v6.758h40.546V9.505H11.758ZM50.05 14.01H14.01v-2.252h36.04v2.252Zm17.226 29.614L52.304 58.596l-3.709-3.71-1.592 1.593 5.301 5.302 16.564-16.564-1.592-1.593Zm-34.119 4.175H18.516v2.252h14.641V47.8Zm0 4.505h-7.884v2.253h7.884v-2.253Zm0 4.506h-7.884v2.252h7.884v-2.253Zm14.642-36.042H11.758v2.253h36.04v-2.253Zm0 4.505H11.758v2.253h36.04v-2.253Zm0 4.505H11.758v2.253h36.04v-2.253Zm-14.642 4.505h-21.4v2.253h21.4v-2.253Zm0 4.506h-21.4v2.252h21.4V38.79Zm19.147-18.021h-2.253v2.253h2.253v-2.253Zm0 4.505h-2.253v2.253h2.253v-2.253Zm0 4.505h-2.253v2.253h2.253v-2.253Zm-14.642 4.505H35.41v2.253h2.252v-2.253Zm0 4.506H35.41v2.252h2.252V38.79Z"></path></svg></svg>