<svg xmlns="http://www.w3.org/2000/svg"><style>:root svg:not(:target){display:none}</style><svg fill="none" viewBox="0 0 9 6" id="arrow-down"><path fill="#3D546F" fill-rule="evenodd" d="M7.648 0 9 1.386 4.5 6 0 1.386 1.352 0 4.5 3.228 7.648 0Z" clip-rule="evenodd"></path></svg><svg fill="none" viewBox="0 0 16 16" id="arrow-right"><path fill="#fff" fill-rule="evenodd" d="M9.586 8 4.293 2.707l1.414-1.414L12.414 8l-6.707 6.707-1.414-1.414L9.586 8Z" clip-rule="evenodd"></path></svg><svg fill="none" viewBox="0 0 18 18" id="bookmark-icon"><path fill="#fff" fill-rule="evenodd" d="m2.057 18 7.2-3.056 7.2 3.056V1.746C16.457.782 15.537 0 14.4 0H4.114C2.978 0 2.057.782 2.057 1.746V18Zm7.2-5.008-5.143 2.183V1.746H14.4v13.429l-5.143-2.183Z" clip-rule="evenodd"></path></svg><svg fill="none" viewBox="0 0 18 18" id="cart-icon"><path fill="#fff" fill-rule="evenodd" d="M3.651 1.802c-.16 0-.313.018-.459.052a3.91 3.91 0 0 0-.764-1.14C1.918.202 1.113 0 0 0v1.8c.68 0 1.072.098 1.16.186.338.34.634 1.032.634 1.614l.009.127L2.68 9.9C1.21 9.977.07 11.123 0 12.555v.945c.087 1.48 1.222 2.618 2.64 2.698h.203A2.692 2.692 0 0 0 5.381 18a2.692 2.692 0 0 0 2.537-1.8h2.1a2.692 2.692 0 0 0 2.537 1.8 2.695 2.695 0 0 0 2.69-2.7c0-1.491-1.204-2.7-2.69-2.7a2.692 2.692 0 0 0-2.537 1.8h-2.1a2.692 2.692 0 0 0-2.537-1.8 2.692 2.692 0 0 0-2.538 1.8H2.69c-.457-.027-.867-.439-.898-.954l.002-.846c.024-.467.431-.876.94-.901h1.771l.013.001h9.039l.132-.042a2.357 2.357 0 0 0 1.482-1.396l.094-.187.307-.61c.318-.632.636-1.265.945-1.884a141.339 141.339 0 0 0 1.34-2.713C18.4 3.654 17.301 2.72 16.18 2.7L3.65 1.802ZM13.245 9.9h-8.66a.153.153 0 0 1-.11-.126l-.879-6.173 12.45.894c-.217.446-.613 1.243-1.132 2.278l-.013.026-.93 1.855-.307.61-.116.23-.043.102a.562.562 0 0 1-.26.304Zm-.69 6.3a.898.898 0 0 0 .897-.9c0-.497-.402-.9-.897-.9a.898.898 0 0 0-.897.9c0 .497.402.9.897.9Zm-6.277-.9c0 .497-.402.9-.897.9a.898.898 0 0 1-.897-.9c0-.497.401-.9.897-.9.495 0 .896.403.896.9Z" clip-rule="evenodd"></path></svg><svg fill="none" viewBox="0 0 9 7" id="filter-check-mark"><path fill="#3D546F" fill-rule="evenodd" d="M3.544 4.22 7.648 0 9 1.39 3.544 7 0 3.356l1.352-1.39L3.544 4.22Z" clip-rule="evenodd"></path></svg><svg fill="none" viewBox="0 0 16 16" id="login-icon"><path fill="#fff" fill-rule="evenodd" d="M9 2h5v12H9v2h7V0H9v2ZM4.3 3.7l3.24 3.25H0v2h7.54l-3.25 3.24 1.42 1.42 4.95-4.95.7-.71-.7-.7L5.7 2.28 4.29 3.71Z" clip-rule="evenodd"></path></svg><svg fill="none" viewBox="0 0 16 16" id="phone-icon"><path fill-rule="evenodd" clip-rule="evenodd" d="M7.09 5.07c.414-.558.562-1.147.093-1.667C6.132 1.931 5.424 1.021 4.98.583 4.137-.251 2.75-.138 2.018.582a74 74 0 0 0-.928.929C-1.155 3.756.214 8.504 3.853 12.146c3.638 3.642 8.385 5.011 10.634 2.76.372-.358.687-.673.935-.935.716-.757.825-2.083-.005-2.945-.425-.442-1.293-1.115-2.827-2.213-.47-.42-1.027-.329-1.537.006-.246.162-.425.325-.762.662l-.613.614c-.081.08-1.177-.468-2.242-1.534C6.372 7.495 5.823 6.4 5.903 6.32l.614-.614c.107-.107.158-.16.224-.228.137-.144.25-.274.348-.407Zm3.719 6.156.613-.613c.185-.186.306-.3.404-.38 1.343.966 2.122 1.572 2.44 1.903.19.198.16.56-.005.735-.23.243-.528.541-.894.894-1.455 1.455-5.286.35-8.383-2.75-3.098-3.1-4.203-6.933-2.76-8.377.402-.408.53-.535.916-.916.145-.143.54-.175.717 0 .341.337.975 1.148 1.907 2.447a3.38 3.38 0 0 1-.181.205l-.197.2-.613.613C3.73 6.23 4.618 8.004 6.305 9.693c1.686 1.687 3.461 2.576 4.504 1.533ZM9.328.056a7.604 7.604 0 0 1 6.62 6.62l-1.58.263a6.002 6.002 0 0 0-5.303-5.303l.263-1.58ZM8.8 3.218a4.401 4.401 0 0 1 3.985 3.985l-1.585.264a2.8 2.8 0 0 0-2.664-2.664L8.8 3.218Z" fill="#293449"></path></svg><svg fill="none" viewBox="0 0 90 90" id="promo-delivery"><path fill="#fff" d="M72.023 33.76h-5.426l1.635-18.77c.003-.034.003-.067.003-.1v-.01c0-.511-.308-.961-.76-1.157l-.012-.006a1.186 1.186 0 0 0-.087-.031c-.01-.004-.02-.008-.032-.011a.871.871 0 0 0-.073-.02c-.017-.003-.033-.008-.05-.012l-.066-.01-.062-.008-.01-.002c-.022-.002-.044-.001-.066-.002l-.044-.002H41.136a1.263 1.263 0 0 0 0 2.525h24.46L63.085 44.99v.007l-.634 7.279H18.58l.734-7.575h8.353a1.262 1.262 0 1 0 0-2.525H19.56l1.549-15.99h13.294a1.262 1.262 0 1 0 0-2.525h-13.05l.73-7.518h14.003c.695 0 1.263-.567 1.263-1.263 0-.697-.568-1.262-1.263-1.262H20.935c-.593 0-1.108.417-1.232.996l-.003.012c-.007.032-.011.064-.015.096l-.005.03v.007l-.863 8.902H3.512a1.262 1.262 0 1 0 0 2.525h15.06l-1.55 15.99H12.52a1.262 1.262 0 1 0 0 2.525h4.26l-.844 8.706v.004L14.63 66.875v.005l-.001.005c-.002.017-.002.034-.003.052 0 .023-.003.046-.003.07v.003c0 .032.002.064.005.096a1.202 1.202 0 0 0 .017.128l.004.028c.005.024.012.048.018.071l.013.05.005.014c.06.188.165.356.3.494l.007.008.042.038c.087.08.186.148.293.2l.067.033.022.008c.031.012.063.025.096.035l.009.002c.037.011.075.021.114.029l.015.002c.037.007.073.013.11.017h.003c.042.004.083.006.123.006h5.622c.621 4.705 4.655 8.35 9.528 8.35 4.872 0 8.906-3.645 9.526-8.35h20.25c.621 4.705 4.655 8.35 9.527 8.35 4.872 0 8.907-3.645 9.527-8.35h5.625c.042 0 .083-.002.124-.006l.022-.003c.033-.004.066-.009.097-.015l.041-.01a.89.89 0 0 0 .074-.019l.049-.016c.02-.007.041-.014.062-.023l.05-.022a1.558 1.558 0 0 0 .157-.085 1.265 1.265 0 0 0 .097-.068l.042-.034.05-.045.034-.033c.018-.018.034-.037.051-.056l.027-.03.052-.07.018-.025a1.273 1.273 0 0 0 .113-.21c.005-.01.008-.02.012-.031l.03-.08.014-.053.016-.063.01-.058.009-.051c.053-.43 1.042-8.36 1.483-13.49l.002-.014c.127-1.479.208-2.724.208-3.486 0-9.05-7.362-16.412-16.412-16.412Zm-5.646 2.526h5.165l-.66 7.574h-5.165l.66-7.574ZM31.036 74.094a7.096 7.096 0 0 1-7.088-7.088c0-3.908 3.18-7.087 7.088-7.087a7.095 7.095 0 0 1 7.087 7.087 7.095 7.095 0 0 1-7.087 7.088Zm39.303 0a7.095 7.095 0 0 1-7.087-7.088c0-3.908 3.18-7.087 7.087-7.087a7.096 7.096 0 0 1 7.088 7.087 7.095 7.095 0 0 1-7.088 7.088Zm14.033-8.35h-4.505c-.62-4.706-4.655-8.351-9.528-8.351-4.872 0-8.906 3.645-9.526 8.35h-20.25c-.62-4.705-4.655-8.35-9.527-8.35-4.872 0-8.907 3.645-9.527 8.35h-4.233l1.06-10.942h45.273c.043 0 .085-.002.126-.006.008 0 .015-.002.023-.003a1.54 1.54 0 0 0 .098-.015l.042-.01c.025-.006.05-.012.075-.02a.475.475 0 0 0 .049-.017l.063-.022.052-.024a1.23 1.23 0 0 0 .055-.026l.051-.03.051-.03c.017-.01.032-.022.048-.033a1.245 1.245 0 0 0 .22-.202l.034-.04a1.27 1.27 0 0 0 .105-.154l.025-.045.03-.06a.578.578 0 0 0 .02-.05c.01-.02.016-.04.023-.06l.019-.054.015-.06.014-.06.01-.06.008-.063v-.009l.634-7.263h6.524c3.868 0 5.613 2.004 7.46 4.126 1.524 1.75 3.225 3.704 6.117 4.18-.367 3.884-.961 8.87-1.227 11.052Zm1.443-13.582c-1.876-.383-3.03-1.702-4.429-3.308-1.749-2.01-3.883-4.461-7.976-4.918l.653-7.499c6.694.99 11.847 6.772 11.847 13.736 0 .474-.035 1.161-.095 1.989Z"></path><path fill="#fff" d="M31.036 62.377a4.634 4.634 0 0 0-4.63 4.63 4.634 4.634 0 0 0 4.63 4.628 4.634 4.634 0 0 0 4.63-4.629 4.634 4.634 0 0 0-4.63-4.629Zm0 6.733a2.106 2.106 0 0 1-2.104-2.104c0-1.16.944-2.104 2.104-2.104 1.16 0 2.104.944 2.104 2.104 0 1.16-.944 2.104-2.104 2.104Zm39.304-6.733a4.634 4.634 0 0 0-4.63 4.63 4.634 4.634 0 0 0 4.63 4.628 4.634 4.634 0 0 0 4.628-4.629 4.634 4.634 0 0 0-4.629-4.629Zm0 6.733a2.106 2.106 0 0 1-2.105-2.104c0-1.16.944-2.104 2.104-2.104 1.16 0 2.104.944 2.104 2.104 0 1.16-.944 2.104-2.104 2.104ZM14.201 33.761H8.03a1.262 1.262 0 1 0 0 2.525h6.172a1.262 1.262 0 1 0 0-2.525Z"></path></svg><svg fill="none" viewBox="0 0 90 90" id="promo-equipment"><path fill="#F1F5F7" d="M84.214 17.485H78.54v-1.418a4.255 4.255 0 0 0-4.255-4.255h-8.51v.033a5.596 5.596 0 0 0-3.528 1.217l-16.92 13.642a4.24 4.24 0 0 0-3.661-2.128H18.975a4.255 4.255 0 0 0-4.254 4.255v9.928H7.63a4.255 4.255 0 0 0-4.255 4.254v19.855a4.255 4.255 0 0 0 2.85 3.998c0 .085-.014.17-.014.257 0 5.483 4.445 9.928 9.928 9.928 5.483 0 9.928-4.445 9.928-9.928h8.509a9.928 9.928 0 1 0 11.346-9.814V45.963L65.88 25.488a4.255 4.255 0 0 0 4.151 3.343h2.837v8.51a2.836 2.836 0 0 0 2.836 2.836v11.428c-4.071.438-7.09 2.733-7.09 5.59 0 2.858 3.019 5.153 7.09 5.591v11.428a1.418 1.418 0 1 0 2.837 0v-2.918c4.071-.439 7.09-2.733 7.09-5.591s-3.019-5.152-7.09-5.59v-5.838c4.071-.438 7.09-2.733 7.09-5.59 0-2.858-3.019-5.153-7.09-5.591v-2.92a2.836 2.836 0 0 0 2.836-2.836v-8.509h2.837a4.255 4.255 0 0 0 4.254-4.255V21.74a4.255 4.255 0 0 0-4.254-4.255ZM71.45 57.195c0-1.134 1.75-2.372 4.254-2.727v5.455c-2.504-.355-4.254-1.593-4.254-2.727Zm11.345 8.51c0 1.135-1.75 2.373-4.254 2.727v-5.454c2.504.354 4.254 1.592 4.254 2.727Zm0-17.019c0 1.135-1.75 2.373-4.254 2.727V45.96c2.504.355 4.254 1.593 4.254 2.727Zm-7.09-32.619v1.418H71.43a5.632 5.632 0 0 0-.746-2.836h3.602c.783 0 1.418.635 1.418 1.418Zm-32.62 12.764v19.855H26.067a1.418 1.418 0 0 1-1.419-1.418V27.413h17.019c.783 0 1.418.635 1.418 1.418ZM6.211 62.87V43.012c0-.783.635-1.418 1.419-1.418h7.09V57.31a9.943 9.943 0 0 0-7.978 6.639 1.393 1.393 0 0 1-.53-1.08Zm9.928 11.345a7.091 7.091 0 1 1 7.091-7.09 7.1 7.1 0 0 1-7.091 7.09Zm9.51-9.927a9.945 9.945 0 0 0-8.092-6.978V28.831c0-.783.635-1.418 1.418-1.418h2.837v19.855a4.255 4.255 0 0 0 4.255 4.255h17.018v5.786a9.945 9.945 0 0 0-8.084 6.978h-9.353Zm25.945 2.836a7.091 7.091 0 1 1-7.09-7.091 7.1 7.1 0 0 1 7.09 7.091Zm-5.672-37.258 18.106-14.593a2.824 2.824 0 0 1 3.971.44c.465.573.678 1.31.592 2.043a4.24 4.24 0 0 0-2.784 3.753L45.921 41.895v-12.03Zm32.619 7.476h-2.837v-8.51h2.837v8.51Zm7.09-12.765c0 .784-.634 1.419-1.417 1.419H70.03a1.418 1.418 0 0 1-1.418-1.419V21.74c0-.783.635-1.418 1.418-1.418h14.183c.783 0 1.418.635 1.418 1.418v2.837Z"></path><path fill="#F1F5F7" d="M28.903 34.504c.376 0 .737-.15 1.003-.415l1.418-1.419a1.418 1.418 0 0 0-2.006-2.005L27.9 32.083a1.418 1.418 0 0 0 1.003 2.421Zm0 7.091c.376 0 .737-.15 1.003-.415l8.509-8.51a1.418 1.418 0 0 0-2.005-2.005l-8.51 8.51a1.418 1.418 0 0 0 1.003 2.42ZM16.139 62.868a4.255 4.255 0 1 0 0 8.51 4.255 4.255 0 0 0 0-8.51Zm0 5.673a1.418 1.418 0 1 1 0-2.836 1.418 1.418 0 0 1 0 2.836Zm24.11-1.418a4.255 4.255 0 1 0 8.509 0 4.255 4.255 0 0 0-8.51 0Zm5.673 0a1.418 1.418 0 1 1-2.837 0 1.418 1.418 0 0 1 2.837 0ZM27.485 54.36h-1.419a1.418 1.418 0 0 0 0 2.836h1.419a1.418 1.418 0 0 0 0-2.837Z"></path></svg><svg fill="none" viewBox="0 0 90 90" id="promo-materials"><path fill="#fff" d="M79.425 18.225H70.5v-2.55a3.836 3.836 0 0 0-3.825-3.825H57.75V8.025a1.275 1.275 0 0 0-1.275-1.275H8.025A1.275 1.275 0 0 0 6.75 8.025v71.4A1.275 1.275 0 0 0 8.025 80.7h38.48a3.838 3.838 0 0 0 3.595 2.55h7.65a3.836 3.836 0 0 0 3.825-3.825V57.75h1.275a1.275 1.275 0 0 0 1.275-1.275v-5.1A1.275 1.275 0 0 0 62.85 50.1h-5.1V45h21.675a3.836 3.836 0 0 0 3.825-3.825V22.05a3.836 3.836 0 0 0-3.825-3.825Zm-8.925 10.2v-2.55h5.1V37.35H57.75v-5.1h8.925a3.836 3.836 0 0 0 3.825-3.825ZM66.675 14.4a1.275 1.275 0 0 1 1.275 1.275v12.75a1.275 1.275 0 0 1-1.275 1.275h-45.9a1.275 1.275 0 0 1-1.275-1.275v-12.75a1.275 1.275 0 0 1 1.275-1.275h45.9Zm-28.05 19.125A3.836 3.836 0 0 0 34.8 37.35v8.925a1.275 1.275 0 1 1-2.55 0V42.45a3.825 3.825 0 1 0-7.65 0v14.025a1.275 1.275 0 1 1-2.55 0V32.25H45v10.2a1.275 1.275 0 1 1-2.55 0v-5.1a3.836 3.836 0 0 0-3.825-3.825Zm7.65 44.625H9.3V9.3h45.9v2.55H20.775a3.836 3.836 0 0 0-3.825 3.825v2.55h-1.275a2.558 2.558 0 0 0-2.55 2.55v2.55a2.558 2.558 0 0 0 2.55 2.55h1.275v2.55a3.838 3.838 0 0 0 2.55 3.595v24.455a3.825 3.825 0 1 0 7.65 0V42.45a1.275 1.275 0 1 1 2.55 0v3.825a3.825 3.825 0 1 0 7.65 0V37.35a1.275 1.275 0 1 1 2.55 0v5.1a3.825 3.825 0 1 0 7.65 0v-10.2h7.65v5.1h-1.275a3.836 3.836 0 0 0-3.825 3.825V50.1H45a1.275 1.275 0 0 0-1.275 1.275v5.1A1.275 1.275 0 0 0 45 57.75h1.275v20.4ZM16.95 20.775v2.55h-1.275v-2.55h1.275Zm42.075 58.65A1.275 1.275 0 0 1 57.75 80.7H50.1a1.275 1.275 0 0 1-1.275-1.275V57.75h10.2v21.675Zm2.55-26.775v2.55h-15.3v-2.55h15.3ZM80.7 41.175a1.275 1.275 0 0 1-1.275 1.275H57.75A2.558 2.558 0 0 0 55.2 45v5.1h-2.55v-8.925a1.275 1.275 0 0 1 1.275-1.275H75.6a2.558 2.558 0 0 0 2.55-2.55V25.875a2.558 2.558 0 0 0-2.55-2.55h-5.1v-2.55h8.925A1.275 1.275 0 0 1 80.7 22.05v19.125Z"></path><path fill="#fff" d="M23.325 62.85a3.825 3.825 0 1 0 0 7.65 3.825 3.825 0 0 0 0-7.65Zm0 5.1a1.275 1.275 0 1 1 0-2.55 1.275 1.275 0 0 1 0 2.55Zm10.2-15.3a3.825 3.825 0 1 0 0 7.65 3.825 3.825 0 0 0 0-7.65Zm0 5.1a1.275 1.275 0 1 1 0-2.549 1.275 1.275 0 0 1 0 2.549ZM22.05 18.225a1.275 1.275 0 0 0 1.275 1.275H57.75a1.275 1.275 0 0 0 0-2.55H23.325a1.275 1.275 0 0 0-1.275 1.275Zm40.8 1.275h1.275a1.275 1.275 0 0 0 0-2.55H62.85a1.275 1.275 0 1 0 0 2.55Z"></path></svg><svg fill="none" viewBox="0 0 90 90" id="promo-sale"><path fill="#fff" d="M82.111 20.028h-3.345l.004-5.98c.002-4.014-3.262-7.282-7.277-7.284L46.108 6.75h-.003a5.375 5.375 0 0 0-3.826 1.585L4.382 46.23a7.232 7.232 0 0 0-2.132 5.15c0 1.945.757 3.773 2.132 5.148l24.594 24.594a7.258 7.258 0 0 0 5.148 2.129 7.26 7.26 0 0 0 5.148-2.129l23.86-23.86a1.67 1.67 0 1 0-2.363-2.363l-23.86 23.86a3.943 3.943 0 0 1-5.57 0L6.745 54.166a3.914 3.914 0 0 1-1.154-2.785c0-1.053.41-2.042 1.154-2.786l37.897-37.896c.39-.391.91-.607 1.463-.607h.001l25.385.015a3.944 3.944 0 0 1 3.937 3.941l-.008 14h-7.525a2.333 2.333 0 0 1-1.66-.692 6.13 6.13 0 0 0 1.925-1.302 6.166 6.166 0 0 0 0-8.709 6.165 6.165 0 0 0-8.71 0 6.166 6.166 0 0 0 0 8.71 6.132 6.132 0 0 0 3.138 1.68 5.69 5.69 0 0 0 5.307 3.655h7.523l-.004 8.009c0 .553-.216 1.071-.606 1.462l-4.587 4.587a1.67 1.67 0 1 0 2.362 2.363l4.588-4.587a5.377 5.377 0 0 0 1.584-3.823l.005-8.011h3.351a5.687 5.687 0 0 0 5.68-5.68 5.687 5.687 0 0 0-5.68-5.681Zm-20.298-.321c.55-.55 1.27-.824 1.992-.824a2.81 2.81 0 0 1 1.992.824c.174.174.317.366.436.57a5.703 5.703 0 0 0-3.801 3.879 2.8 2.8 0 0 1-.62-.465 2.82 2.82 0 0 1 0-3.984Zm20.298 8.34h-3.35l.003-4.678h3.347c1.29 0 2.34 1.05 2.34 2.34a2.342 2.342 0 0 1-2.34 2.338Z"></path><path fill="#fff" d="M29.218 48.903a1.67 1.67 0 0 0 2.057 1.162l17.151-4.774a1.671 1.671 0 0 0-.896-3.219l-17.15 4.774a1.671 1.671 0 0 0-1.161 2.057Zm7.55 2.205a4.893 4.893 0 0 0-1.443 3.484c0 1.315.512 2.552 1.443 3.483a4.91 4.91 0 0 0 3.483 1.44c1.261 0 2.523-.48 3.483-1.44a4.932 4.932 0 0 0 0-6.967 4.932 4.932 0 0 0-6.966 0Zm4.603 4.604a1.586 1.586 0 0 1-2.705-1.12 1.582 1.582 0 0 1 1.584-1.584c.407 0 .813.154 1.121.463a1.586 1.586 0 0 1 0 2.24Zm3.191-14.552a4.932 4.932 0 0 0 0-6.966 4.894 4.894 0 0 0-3.484-1.443 4.892 4.892 0 0 0-3.483 1.443 4.932 4.932 0 0 0 0 6.966c.96.96 2.222 1.44 3.483 1.44 1.262 0 2.523-.48 3.484-1.44Zm-4.604-4.604c.3-.3.697-.464 1.12-.464a1.586 1.586 0 0 1 1.12 2.705 1.586 1.586 0 0 1-2.24 0 1.587 1.587 0 0 1 0-2.24Z"></path><path fill="#fff" d="M18.867 45.45a1.67 1.67 0 0 0-2.363 0l-4.747 4.748a1.67 1.67 0 0 0 0 2.363l21.186 21.186a1.667 1.667 0 0 0 2.362 0L66.983 42.07a1.67 1.67 0 0 0 0-2.363L45.796 18.521a1.67 1.67 0 0 0-2.362 0L25.956 36a1.671 1.671 0 0 0 2.362 2.364l16.297-16.297L63.438 40.89 34.124 70.204 15.301 51.38l3.566-3.566a1.67 1.67 0 0 0 0-2.362Zm47.81 4.233c-.44 0-.87.179-1.181.49-.311.31-.49.742-.49 1.181 0 .44.179.87.49 1.181.31.31.741.49 1.181.49.44 0 .87-.18 1.181-.49.31-.31.49-.742.49-1.181 0-.44-.18-.87-.49-1.181a1.685 1.685 0 0 0-1.181-.49Z"></path><path fill="#fff" d="M23.592 43.087c.312-.31.49-.74.49-1.181 0-.44-.178-.869-.49-1.181a1.68 1.68 0 0 0-1.181-.49c-.44 0-.87.179-1.181.49-.311.31-.49.742-.49 1.18 0 .442.179.871.49 1.182a1.672 1.672 0 0 0 2.362 0Z"></path></svg><svg fill="none" viewBox="0 0 90 90" id="promo-tools"><path fill="#fff" d="M73.63 9.072H44.614a3.277 3.277 0 0 0-3.246 2.857h-4.225a2.819 2.819 0 0 0-2.818 2.814v.232h-4.434a7.753 7.753 0 0 0-7.641 6.47H2.387a1.262 1.262 0 1 0 0 2.524H22.25c.605 3.667 3.8 6.474 7.641 6.474h4.434v.232a2.819 2.819 0 0 0 2.818 2.814h4.224a3.277 3.277 0 0 0 3.247 2.857h1.9c.309 2.117.797 5.614-1.24 8.848-.526.831-.388 1.46-.178 1.84.208.379.662.831 1.636.831h5.28l-1.48 14.97h-5.007c-4.69 0-8.504 3.805-8.504 8.483v6.326a2.16 2.16 0 0 0 2.159 2.157h32.375a2.16 2.16 0 0 0 2.159-2.157V64.991a2.16 2.16 0 0 0-2.16-2.157h-3.498c.046-3.338.275-6.524.684-9.484a1.262 1.262 0 1 0-2.5-.346c-.425 3.074-.662 6.375-.709 9.83H53.068l1.593-16.097.001-.01 1.028-10.382h15.722c-1.785 3.227-3.14 6.847-4.12 11.001a1.262 1.262 0 0 0 2.457.58c1.054-4.473 2.56-8.275 4.593-11.6 7.206-.37 12.954-6.337 12.954-13.62 0-7.517-6.13-13.634-13.666-13.634ZM29.89 27.918c-2.879 0-5.221-2.338-5.221-5.212 0-2.87 2.342-5.206 5.221-5.206h4.434v10.418H29.89Zm6.959 2.757V14.743c0-.16.131-.29.293-.29h4.195v16.511h-4.195a.295.295 0 0 1-.293-.29Zm34.339 46.601H39.545v-5.959c0-3.285 2.683-5.958 5.98-5.958h1.82v2.584c0 2.388 2.613 4.637 4.64 4.637h19.204v4.696Zm0-11.917v4.696H51.985c-.631 0-2.116-1.105-2.116-2.113v-2.584h21.32ZM52.263 45.34h-4.19c1.654-3.436 1.292-6.871.99-8.995h4.09l-.89 8.995ZM73.63 33.82h-5.145v-7.696a1.262 1.262 0 1 0-2.525 0v7.697H44.614a.759.759 0 0 1-.751-.747V12.343c0-.404.344-.746.75-.746H65.96v8.71a1.262 1.262 0 1 0 2.525 0v-8.71h5.145c6.143 0 11.142 4.984 11.142 11.11 0 6.128-4.999 11.114-11.142 11.114Z"></path><path fill="#fff" d="M72.709 19.635c-.697 0-1.263.565-1.263 1.262v3.618a1.262 1.262 0 1 0 2.525 0v-3.617c0-.698-.565-1.263-1.262-1.263Zm5.577 0c-.698 0-1.263.565-1.263 1.262v3.618a1.262 1.262 0 1 0 2.525 0v-3.617c0-.698-.565-1.263-1.262-1.263ZM57.08 14.723h-5.687c-2.4 0-4.354 1.95-4.354 4.347a4.355 4.355 0 0 0 4.354 4.346h5.687a4.353 4.353 0 0 0 4.349-4.346 4.353 4.353 0 0 0-4.35-4.347Zm0 6.169h-5.687a1.828 1.828 0 0 1-1.83-1.822c0-1.005.821-1.823 1.83-1.823h5.687c1.006 0 1.824.818 1.824 1.823a1.825 1.825 0 0 1-1.824 1.822Z"></path></svg><svg fill="none" viewBox="0 0 20 20" id="search-icon"><path fill="#405069" fill-rule="evenodd" d="M8 16a8 8 0 1 1 6.32-3.094l5.387 5.387-1.414 1.414-5.387-5.387A7.965 7.965 0 0 1 8 16Zm6-8A6 6 0 1 1 2 8a6 6 0 0 1 12 0Z" clip-rule="evenodd"></path></svg><svg fill="none" viewBox="0 0 80 80" id="services-credit"><path fill="#FFF" d="M61.24 10.352v.758L43.031 5.36a7.69 7.69 0 0 0-6.46.847l-7.536 4.796a7.664 7.664 0 0 0-3.475 5.311H8.77a1.193 1.193 0 0 0-1.192 1.193v26.235a1.192 1.192 0 0 0 1.192 1.192h50.085a1.192 1.192 0 0 0 1.193-1.192V31.006c.16-.12.318-.247.47-.382h.722v2.385a1.192 1.192 0 0 0 1.193 1.193H75.55v-2.385H63.625V11.544H75.55V9.16H62.433a1.193 1.193 0 0 0-1.193 1.193ZM42.45 36.587c.474 0 .946-.054 1.408-.16a10.696 10.696 0 0 0-2.822 6.122h-6.03V18.7h.903a3.867 3.867 0 0 1 2.734 6.601l-.614.614a6.253 6.253 0 0 0 4.42 10.673Zm8.059-3.51a10.67 10.67 0 0 0-2.577.617l2.577-2.576v1.96Zm0 2.404v7.068H43.44a8.364 8.364 0 0 1 7.069-7.068ZM32.62 42.549h-4.77V18.7h4.77v23.85Zm-7.155 0h-6.03a10.751 10.751 0 0 0-9.472-9.472v-4.906a10.75 10.75 0 0 0 9.472-9.472h6.03v23.85ZM17.031 18.7a8.364 8.364 0 0 1-7.068 7.069V18.7h7.068ZM9.963 35.481a8.365 8.365 0 0 1 7.068 7.068H9.963v-7.068Zm47.7 7.068h-4.77V32.231a7.992 7.992 0 0 0 4.77 0v10.318Zm2.384-14.31c-.316 0-.62.126-.843.35a5.56 5.56 0 0 1-7.854 0 1.193 1.193 0 0 0-1.686 0l-4.48 4.48a3.868 3.868 0 1 1-5.47-5.468l.614-.614a6.251 6.251 0 0 0-4.42-10.673h-7.925a5.298 5.298 0 0 1 2.332-3.3l7.536-4.795a5.311 5.311 0 0 1 4.462-.585L61.24 13.61v14.628h-1.193ZM11.155 74.747v-1.193h3.578a1.193 1.193 0 0 0 1.192-1.192v-1.26l.113.08a25.54 25.54 0 0 0 32.904-2.723l8.968-8.968a5.408 5.408 0 0 0-6.888-8.281 4.555 4.555 0 0 0-7.602-1.034 4.65 4.65 0 0 0-6.9 2.861l-1.254 5.015h-6.922l-.843-.844a9.629 9.629 0 0 0-11.576-1.555v-1.179a1.192 1.192 0 0 0-1.193-1.192h-3.577a1.192 1.192 0 0 0-1.192-1.193H4v2.385h4.77v19.08H4v2.385h5.963a1.193 1.193 0 0 0 1.192-1.192Zm35.21-23.727a2.171 2.171 0 0 1 2.695 2.023l-8.321 8.32a4.755 4.755 0 0 0-.593-1.214l4.884-8.14a2.157 2.157 0 0 1 1.335-.989Zm-7.531 2.596a2.267 2.267 0 0 1 3.306-1.426l-3.818 6.363a4.721 4.721 0 0 0-.655-.269l1.167-4.668Zm-18.139 3.158a7.193 7.193 0 0 1 5.12 2.121l1.192 1.192c.223.224.527.35.843.35h8.347a2.385 2.385 0 1 1 0 4.77H25.465v2.385h10.732a4.774 4.774 0 0 0 4.203-2.517L51.947 53.53a3.023 3.023 0 0 1 4.276 4.276l-8.968 8.967a23.155 23.155 0 0 1-29.831 2.47l-1.499-1.072v-9.6a7.185 7.185 0 0 1 4.77-1.796Zm-7.155-1.107v15.502h-2.385V55.667h2.385Z"></path></svg><svg fill="none" viewBox="0 0 80 80" id="services-warranty"><path fill="#FFF" d="M70.562 38.789a14.02 14.02 0 0 1-11.69-6.257l-.936-1.405-.938 1.405a14.02 14.02 0 0 1-11.69 6.257h-4.267v18.06c0 4.366 1.966 8.47 5.25 11.223H23.02v-4.505h14.641V43.294H14.01v9.01H7.253V7.253h49.556v20.273h2.253V5H5v48.897l16.428 16.428h28.325L57.936 75l9.517-5.438A14.674 14.674 0 0 0 74.83 56.85V38.789h-4.268Zm-49.794 27.69L8.845 54.558h11.923V66.48Zm-4.505-14.175v-6.758H35.41v15.769H23.02v-9.01h-6.757Zm56.314 4.546c0 4.435-2.392 8.556-6.242 10.757l-8.4 4.8-8.4-4.8a12.418 12.418 0 0 1-6.241-10.757V41.04h2.015c4.933 0 9.546-2.213 12.627-5.99a16.267 16.267 0 0 0 12.626 5.99h2.015v15.81Z"></path><path fill="#FFF" d="M68.072 50.052v6.798a7.902 7.902 0 0 1-3.972 6.846l1.117 1.955a10.158 10.158 0 0 0 5.108-8.801v-6.798h-2.253ZM11.758 9.505v6.758h40.546V9.505H11.758ZM50.05 14.01H14.01v-2.252h36.04v2.252Zm17.226 29.614L52.304 58.596l-3.709-3.71-1.592 1.593 5.301 5.302 16.564-16.564-1.592-1.593Zm-34.119 4.175H18.516v2.252h14.641V47.8Zm0 4.505h-7.884v2.253h7.884v-2.253Zm0 4.506h-7.884v2.252h7.884v-2.253Zm14.642-36.042H11.758v2.253h36.04v-2.253Zm0 4.505H11.758v2.253h36.04v-2.253Zm0 4.505H11.758v2.253h36.04v-2.253Zm-14.642 4.505h-21.4v2.253h21.4v-2.253Zm0 4.506h-21.4v2.252h21.4V38.79Zm19.147-18.021h-2.253v2.253h2.253v-2.253Zm0 4.505h-2.253v2.253h2.253v-2.253Zm0 4.505h-2.253v2.253h2.253v-2.253Zm-14.642 4.505H35.41v2.253h2.252v-2.253Zm0 4.506H35.41v2.252h2.252V38.79Z"></path></svg><svg fill="none" viewBox="0 0 16 16" id="user-icon"><path fill="#fff" fill-rule="evenodd" d="M8 16A8 8 0 1 1 8 0a8 8 0 0 1 0 16Zm5.382-4.273a6.545 6.545 0 1 0-10.763 0C3.437 10.646 5.36 10.182 8 10.182s4.563.464 5.382 1.545Zm-1.044 1.175c-.213-.766-1.742-1.266-4.338-1.266s-4.125.5-4.338 1.266A6.52 6.52 0 0 0 8 14.546a6.52 6.52 0 0 0 4.338-1.644ZM8 3.636c-1.76 0-2.91 1.277-2.91 2.91 0 2.492 1.282 3.636 2.91 3.636 1.613 0 2.91-1.106 2.91-3.491 0-1.657-1.154-3.055-2.91-3.055Zm-1.455 2.91c0 1.65.596 2.181 1.455 2.181.857 0 1.455-.51 1.455-2.036 0-.909-.57-1.6-1.455-1.6-.92 0-1.455.593-1.455 1.454Z" clip-rule="evenodd"></path></svg></svg>